<svg xmlns="http://www.w3.org/2000/svg" viewBox="0 0 1920 105.976"><defs><style>.a{fill:#00a08d;}</style></defs><path class="a" d="M1722.437,105.976H0V0H6c8.419.329,16.783.96,24.989,1.887A314.6,314.6,0,0,1,67.073,8.07a268.351,268.351,0,0,1,32.656,9.783A213.328,213.328,0,0,1,128.181,30.81q6.695,3.7,12.727,7.751a80.06,80.06,0,0,1,86.683.322q6.227-4.22,13.2-8.073a213.365,213.365,0,0,1,28.451-12.956A268.4,268.4,0,0,1,301.9,8.07a314.635,314.635,0,0,1,36.086-6.183C346.194.96,354.556.329,362.975,0h27.511c8.419.329,16.781.96,24.988,1.887A314.6,314.6,0,0,1,451.561,8.07a268.4,268.4,0,0,1,32.656,9.783A213.327,213.327,0,0,1,512.668,30.81a168.551,168.551,0,0,1,14.454,8.93,80.061,80.061,0,0,1,86.664-2q5.471-3.605,11.5-6.932a213.387,213.387,0,0,1,28.452-12.956A268.4,268.4,0,0,1,686.389,8.07a314.636,314.636,0,0,1,36.086-6.183C730.681.96,739.043.329,747.463,0h27.511c8.419.329,16.781.96,24.989,1.887A314.6,314.6,0,0,1,836.048,8.07,268.349,268.349,0,0,1,868.7,17.853,213.33,213.33,0,0,1,897.155,30.81a166.551,166.551,0,0,1,16.205,10.16,80.063,80.063,0,0,1,86.592-4.32q4.712-3.021,9.817-5.84a213.37,213.37,0,0,1,28.451-12.956,268.4,268.4,0,0,1,32.656-9.783,314.637,314.637,0,0,1,36.085-6.183C1115.168.96,1123.53.329,1131.95,0h27.511c8.419.329,16.781.96,24.989,1.887a314.637,314.637,0,0,1,36.085,6.183,268.4,268.4,0,0,1,32.656,9.783,213.337,213.337,0,0,1,28.452,12.956,164.407,164.407,0,0,1,17.979,11.445,80.066,80.066,0,0,1,86.466-6.649q3.951-2.468,8.167-4.8a213.329,213.329,0,0,1,28.452-12.956,268.4,268.4,0,0,1,32.656-9.783,314.637,314.637,0,0,1,36.085-6.183C1499.656.96,1508.018.329,1516.437,0h27.511c8.42.329,16.781.96,24.989,1.887a314.637,314.637,0,0,1,36.085,6.183,268.46,268.46,0,0,1,32.656,9.783A213.322,213.322,0,0,1,1666.13,30.81,162.186,162.186,0,0,1,1685.9,43.6a80.072,80.072,0,0,1,86.287-8.988q3.193-1.945,6.553-3.8a213.359,213.359,0,0,1,28.451-12.956A268.4,268.4,0,0,1,1839.85,8.07a314.571,314.571,0,0,1,36.086-6.183C1884.143.96,1892.5.329,1900.924,0H1920V105.976Z"/></svg>